# xmcd CD database file
#
# Track frame offsets:
#	150
#	106775
#	210210
#
# Disc length: 4138 seconds
#
# Revision: 2
# Processed by: cddbd v1.5.2PL0 Copyright (c) Steve Scherf et al.
# Submitted via: CDex 1.81
#
DISCID=18102803
DTITLE=DJ Deep - Deep Dance 05 - 07 - The Digital Dances Compilation 1.
DYEAR=1900
DGENRE=Dance
TTITLE0=Hit Mix 05
TTITLE1=Hit Mix 06
TTITLE2=Hit Mix 07
EXTD=
EXTT0=
EXTT1=
EXTT2=
PLAYORDER=
